M48
;Layer_Color=9474304
;FILE_FORMAT=2:5
INCH
;TYPE=PLATED
T01F00S00C0.01181
T02F00S00C0.01968
T04F00S00C0.12205
%
T01
X0051500Y0034000
Y0036500
X0082500
Y0041000
X0082000Y0055000
X0073500Y0054500
X0072000Y0074500
X0060000
X0024500Y0085000
X0021000Y0092500
X0021982Y0094871
X0031500Y0123000
X0041000Y0137500
Y0142500
X0025000Y0145500
X0025500Y0151500
X0127000Y0149500
Y0143500
X0131500Y0155500
X0115500Y0137000
X0116000Y0119000
X0109500Y0122500
X0088500Y0092500
X0091000Y0032500
X0091500Y0030000
X0122000Y0050705
T02
X0037000Y0087500
X0046000Y0098500
X0125500Y0086000
X0126402Y0132481
T04
X0021000Y0021319
X0011500Y0103819
X0127224
X0115500Y0021319
M30
