G04*
G04 #@! TF.GenerationSoftware,Altium Limited,Altium Designer,26.4.1 (12)*
G04*
G04 Layer_Color=8388736*
%FSLAX25Y25*%
%MOIN*%
G70*
G04*
G04 #@! TF.SameCoordinates,23AF4D84-39AE-4669-A207-888BAC4539CA*
G04*
G04*
G04 #@! TF.FilePolarity,Negative*
G04*
G01*
G75*
%ADD17R,0.06700X0.03937*%
%ADD20R,0.03500X0.03500*%
%ADD21R,0.05900X0.03500*%
%ADD22R,0.03500X0.05900*%
%ADD23R,0.03898X0.01181*%
%ADD24R,0.02254X0.02423*%
%ADD25R,0.02423X0.02254*%
%ADD26R,0.02237X0.02254*%
%ADD27R,0.03150X0.03543*%
%ADD29R,0.04724X0.05906*%
%ADD33R,0.03543X0.03150*%
%ADD34R,0.02593X0.03197*%
%ADD35R,0.02953X0.03543*%
%ADD37R,0.03543X0.02953*%
%ADD40R,0.03197X0.02593*%
%ADD42R,0.03150X0.03150*%
%ADD43R,0.12992X0.05906*%
%ADD46R,0.03740X0.02953*%
%ADD47R,0.04921X0.06496*%
%ADD48R,0.02165X0.06496*%
%ADD49R,0.05391X0.04191*%
G04:AMPARAMS|DCode=50|XSize=49.21mil|YSize=29.53mil|CornerRadius=4.96mil|HoleSize=0mil|Usage=FLASHONLY|Rotation=90.000|XOffset=0mil|YOffset=0mil|HoleType=Round|Shape=RoundedRectangle|*
%AMROUNDEDRECTD50*
21,1,0.04921,0.01961,0,0,90.0*
21,1,0.03929,0.02953,0,0,90.0*
1,1,0.00992,0.00980,0.01965*
1,1,0.00992,0.00980,-0.01965*
1,1,0.00992,-0.00980,-0.01965*
1,1,0.00992,-0.00980,0.01965*
%
%ADD50ROUNDEDRECTD50*%
%ADD51R,0.04528X0.11221*%
%ADD52R,0.02756X0.04921*%
%ADD53R,0.03740X0.04528*%
G04:AMPARAMS|DCode=54|XSize=35.83mil|YSize=31.91mil|CornerRadius=6.2mil|HoleSize=0mil|Usage=FLASHONLY|Rotation=180.000|XOffset=0mil|YOffset=0mil|HoleType=Round|Shape=RoundedRectangle|*
%AMROUNDEDRECTD54*
21,1,0.03583,0.01950,0,0,180.0*
21,1,0.02342,0.03191,0,0,180.0*
1,1,0.01241,-0.01171,0.00975*
1,1,0.01241,0.01171,0.00975*
1,1,0.01241,0.01171,-0.00975*
1,1,0.01241,-0.01171,-0.00975*
%
%ADD54ROUNDEDRECTD54*%
%ADD55R,0.02953X0.03740*%
%ADD56R,0.03347X0.04134*%
%ADD57R,0.01575X0.04921*%
%ADD58R,0.13583X0.11221*%
%ADD59C,0.20276*%
%ADD60C,0.03150*%
%ADD61O,0.04528X0.08858*%
%ADD62O,0.04528X0.07677*%
%ADD63C,0.02362*%
%ADD64C,0.03347*%
D17*
X6500Y158405D02*
D03*
Y152500D02*
D03*
Y146595D02*
D03*
Y134783D02*
D03*
Y128878D02*
D03*
Y122972D02*
D03*
Y117067D02*
D03*
Y140689D02*
D03*
X131500Y158405D02*
D03*
Y152500D02*
D03*
Y146595D02*
D03*
Y134783D02*
D03*
Y128878D02*
D03*
Y122972D02*
D03*
Y117067D02*
D03*
Y140689D02*
D03*
D20*
X64988Y127373D02*
D03*
Y132885D02*
D03*
X70500D02*
D03*
Y127373D02*
D03*
Y121861D02*
D03*
X64988D02*
D03*
X59476D02*
D03*
Y127373D02*
D03*
Y132885D02*
D03*
D21*
X105342Y157767D02*
D03*
Y142767D02*
D03*
Y137767D02*
D03*
Y132767D02*
D03*
Y127767D02*
D03*
Y122767D02*
D03*
Y117767D02*
D03*
Y112767D02*
D03*
Y107767D02*
D03*
Y102767D02*
D03*
Y97767D02*
D03*
Y92767D02*
D03*
X36445D02*
D03*
Y97767D02*
D03*
Y102767D02*
D03*
Y107767D02*
D03*
Y112767D02*
D03*
Y117767D02*
D03*
Y122767D02*
D03*
Y147767D02*
D03*
Y152767D02*
D03*
Y157767D02*
D03*
Y132767D02*
D03*
Y127767D02*
D03*
X105342Y147767D02*
D03*
X36445Y142767D02*
D03*
X105342Y152767D02*
D03*
X36445Y137767D02*
D03*
D22*
X98394Y87846D02*
D03*
X93394D02*
D03*
X88394D02*
D03*
X83394D02*
D03*
X78394D02*
D03*
X73394D02*
D03*
X68394D02*
D03*
X63394D02*
D03*
X58394D02*
D03*
X53394D02*
D03*
X48394D02*
D03*
X43394D02*
D03*
D23*
X78169Y40787D02*
D03*
Y36850D02*
D03*
X71831D02*
D03*
Y40787D02*
D03*
Y38819D02*
D03*
X78169D02*
D03*
D24*
X82000Y52687D02*
D03*
Y49313D02*
D03*
D25*
X71687Y52500D02*
D03*
X68313D02*
D03*
X87313Y52000D02*
D03*
X90687D02*
D03*
X72313Y77000D02*
D03*
X75687D02*
D03*
D26*
X61720Y76500D02*
D03*
X65280D02*
D03*
D27*
X131953Y73819D02*
D03*
X29953Y37000D02*
D03*
X114047Y73819D02*
D03*
X126047D02*
D03*
X119953D02*
D03*
X22594Y148319D02*
D03*
X24047Y37000D02*
D03*
X28500Y148319D02*
D03*
D29*
X25055Y44402D02*
D03*
X6945D02*
D03*
X16000D02*
D03*
D33*
X115500Y81366D02*
D03*
X28000Y160272D02*
D03*
Y154366D02*
D03*
X115500Y87272D02*
D03*
D34*
X92164Y44500D02*
D03*
X111836Y122819D02*
D03*
X117164D02*
D03*
X86836Y44500D02*
D03*
D35*
X105898Y38819D02*
D03*
X19551Y36819D02*
D03*
X13449D02*
D03*
X112000Y38819D02*
D03*
D37*
X20500Y160370D02*
D03*
Y154268D02*
D03*
D40*
X28500Y142483D02*
D03*
Y137155D02*
D03*
D42*
X21205Y84910D02*
D03*
Y77819D02*
D03*
X15299D02*
D03*
Y84910D02*
D03*
D43*
X16000Y69598D02*
D03*
D46*
X113000Y134118D02*
D03*
Y129000D02*
D03*
X117547Y128941D02*
D03*
Y134059D02*
D03*
D47*
X96701Y70024D02*
D03*
X41583D02*
D03*
Y59000D02*
D03*
X96701D02*
D03*
D48*
X91780Y70024D02*
D03*
X87843D02*
D03*
X83906D02*
D03*
X79969D02*
D03*
X76032D02*
D03*
X72095D02*
D03*
X68158D02*
D03*
X64220D02*
D03*
X60283D02*
D03*
X56346D02*
D03*
X52409D02*
D03*
X48472D02*
D03*
X89811Y59000D02*
D03*
X85874D02*
D03*
X81937D02*
D03*
X78000D02*
D03*
X74063D02*
D03*
X70126D02*
D03*
X66189D02*
D03*
X62252D02*
D03*
X58315D02*
D03*
X54378D02*
D03*
X50441D02*
D03*
X46504D02*
D03*
D49*
X95500Y17869D02*
D03*
Y30769D02*
D03*
D50*
X122760Y80701D02*
D03*
X130240D02*
D03*
X126500D02*
D03*
X122760Y90937D02*
D03*
X130240D02*
D03*
D51*
X112945Y62319D02*
D03*
X131055D02*
D03*
X122000D02*
D03*
D52*
X58295Y30039D02*
D03*
X83492D02*
D03*
X80343D02*
D03*
X61445D02*
D03*
D53*
X99953Y37000D02*
D03*
X55047Y35500D02*
D03*
X60953D02*
D03*
X94047Y37000D02*
D03*
D54*
X22500Y137063D02*
D03*
Y142575D02*
D03*
D55*
X5941Y84819D02*
D03*
Y77819D02*
D03*
X11059D02*
D03*
Y84819D02*
D03*
D56*
X29756Y91819D02*
D03*
Y97319D02*
D03*
X24244D02*
D03*
Y91819D02*
D03*
D57*
X64004Y30039D02*
D03*
X65972D02*
D03*
X67941D02*
D03*
X77784D02*
D03*
X75815D02*
D03*
X73847D02*
D03*
X69910D02*
D03*
X71878D02*
D03*
D58*
X122000Y39091D02*
D03*
D59*
X127224Y103819D02*
D03*
X115500Y21319D02*
D03*
X11500Y103819D02*
D03*
X21000Y21319D02*
D03*
D60*
X59516Y25807D02*
D03*
X82272D02*
D03*
D61*
X87902Y27776D02*
D03*
X53886D02*
D03*
D62*
X87902Y11319D02*
D03*
X53886D02*
D03*
D63*
X91500Y30000D02*
D03*
X91000Y32500D02*
D03*
X51500Y36500D02*
D03*
Y34000D02*
D03*
X25500Y151500D02*
D03*
X25000Y145500D02*
D03*
X116000Y119000D02*
D03*
X131500Y155500D02*
D03*
X115500Y137000D02*
D03*
X122000Y50705D02*
D03*
X73500Y54500D02*
D03*
X72000Y74500D02*
D03*
X21000Y92500D02*
D03*
X21982Y94871D02*
D03*
X31500Y123000D02*
D03*
X24500Y85000D02*
D03*
X127000Y143500D02*
D03*
Y149500D02*
D03*
X41000Y142500D02*
D03*
Y137500D02*
D03*
X88500Y92500D02*
D03*
X60000Y74500D02*
D03*
X82000Y55000D02*
D03*
X109500Y122500D02*
D03*
X82500Y36500D02*
D03*
Y41000D02*
D03*
D64*
X37000Y87500D02*
D03*
X126402Y132481D02*
D03*
X125500Y86000D02*
D03*
X46000Y98500D02*
D03*
M02*
