G04*
G04 #@! TF.GenerationSoftware,Altium Limited,Altium Designer,26.4.1 (12)*
G04*
G04 Layer_Color=16711935*
%FSLAX25Y25*%
%MOIN*%
G70*
G04*
G04 #@! TF.SameCoordinates,23AF4D84-39AE-4669-A207-888BAC4539CA*
G04*
G04*
G04 #@! TF.FilePolarity,Negative*
G04*
G01*
G75*
%ADD59C,0.20276*%
%ADD60C,0.03150*%
%ADD61O,0.04528X0.08858*%
%ADD62O,0.04528X0.07677*%
%ADD63C,0.02362*%
%ADD64C,0.03347*%
D59*
X127224Y103819D02*
D03*
X115500Y21319D02*
D03*
X11500Y103819D02*
D03*
X21000Y21319D02*
D03*
D60*
X59516Y25807D02*
D03*
X82272D02*
D03*
D61*
X87902Y27776D02*
D03*
X53886D02*
D03*
D62*
X87902Y11319D02*
D03*
X53886D02*
D03*
D63*
X91500Y30000D02*
D03*
X91000Y32500D02*
D03*
X51500Y36500D02*
D03*
Y34000D02*
D03*
X25500Y151500D02*
D03*
X25000Y145500D02*
D03*
X116000Y119000D02*
D03*
X131500Y155500D02*
D03*
X115500Y137000D02*
D03*
X122000Y50705D02*
D03*
X73500Y54500D02*
D03*
X72000Y74500D02*
D03*
X21000Y92500D02*
D03*
X21982Y94871D02*
D03*
X31500Y123000D02*
D03*
X24500Y85000D02*
D03*
X127000Y143500D02*
D03*
Y149500D02*
D03*
X41000Y142500D02*
D03*
Y137500D02*
D03*
X88500Y92500D02*
D03*
X60000Y74500D02*
D03*
X82000Y55000D02*
D03*
X109500Y122500D02*
D03*
X82500Y36500D02*
D03*
Y41000D02*
D03*
D64*
X37000Y87500D02*
D03*
X126402Y132481D02*
D03*
X125500Y86000D02*
D03*
X46000Y98500D02*
D03*
M02*
