G04*
G04 #@! TF.GenerationSoftware,Altium Limited,Altium Designer,26.4.1 (12)*
G04*
G04 Layer_Color=65535*
%FSLAX25Y25*%
%MOIN*%
G70*
G04*
G04 #@! TF.SameCoordinates,23AF4D84-39AE-4669-A207-888BAC4539CA*
G04*
G04*
G04 #@! TF.FilePolarity,Positive*
G04*
G01*
G75*
%ADD10C,0.00787*%
%ADD11C,0.00984*%
%ADD12C,0.00500*%
%ADD13C,0.00600*%
%ADD14C,0.01575*%
%ADD15C,0.00709*%
G36*
X39698Y38346D02*
X39716D01*
Y36758D01*
X39734D01*
Y35743D01*
Y35725D01*
Y34839D01*
X39753D01*
Y34230D01*
X38738D01*
Y34433D01*
X38719D01*
Y34488D01*
X38664D01*
Y34470D01*
X38627D01*
Y34451D01*
X38590D01*
Y34433D01*
X38572D01*
Y34414D01*
X38535D01*
Y34396D01*
X38498D01*
Y34377D01*
X38461D01*
Y34359D01*
X38442D01*
Y34340D01*
X38405D01*
Y34322D01*
X38368D01*
Y34303D01*
X38332D01*
Y34285D01*
X38313D01*
Y34266D01*
X38276D01*
Y34248D01*
X38221D01*
Y34230D01*
X38165D01*
Y34211D01*
X38110D01*
Y34193D01*
X38073D01*
Y34174D01*
X38018D01*
Y34156D01*
X37907D01*
Y34137D01*
X37796D01*
Y34119D01*
X37593D01*
Y34137D01*
X37464D01*
Y34156D01*
X37390D01*
Y34174D01*
X37316D01*
Y34193D01*
X37279D01*
Y34211D01*
X37242D01*
Y34230D01*
X37206D01*
Y34248D01*
X37169D01*
Y34266D01*
X37132D01*
Y34285D01*
X37095D01*
Y34303D01*
X37076D01*
Y34322D01*
X37058D01*
Y34340D01*
X37021D01*
Y34359D01*
X37003D01*
Y34377D01*
X36984D01*
Y34396D01*
X36966D01*
Y34414D01*
X36947D01*
Y34433D01*
X36929D01*
Y34451D01*
X36892D01*
Y34488D01*
X36873D01*
Y34506D01*
X36855D01*
Y34525D01*
X36836D01*
Y34562D01*
X36818D01*
Y34580D01*
X36799D01*
Y34599D01*
X36781D01*
Y34636D01*
X36763D01*
Y34654D01*
X36744D01*
Y34691D01*
X36726D01*
Y34710D01*
X36707D01*
Y34765D01*
X36689D01*
Y34783D01*
X36670D01*
Y34839D01*
X36652D01*
Y34857D01*
X36633D01*
Y34912D01*
X36615D01*
Y34949D01*
X36596D01*
Y35005D01*
X36578D01*
Y35060D01*
X36560D01*
Y35116D01*
X36541D01*
Y35171D01*
X36523D01*
Y35263D01*
X36504D01*
Y35466D01*
X36486D01*
Y35854D01*
X36504D01*
Y36094D01*
X36523D01*
Y36223D01*
X36541D01*
Y36297D01*
X36560D01*
Y36352D01*
X36578D01*
Y36408D01*
X36596D01*
Y36445D01*
X36615D01*
Y36500D01*
X36633D01*
Y36555D01*
X36652D01*
Y36592D01*
X36670D01*
Y36629D01*
X36689D01*
Y36648D01*
X36707D01*
Y36685D01*
X36726D01*
Y36722D01*
X36744D01*
Y36758D01*
X36763D01*
Y36777D01*
X36781D01*
Y36814D01*
X36799D01*
Y36851D01*
X36818D01*
Y36869D01*
X36836D01*
Y36888D01*
X36855D01*
Y36906D01*
X36873D01*
Y36924D01*
X36892D01*
Y36961D01*
X36910D01*
Y36980D01*
X36929D01*
Y36998D01*
X36947D01*
Y37017D01*
X36966D01*
Y37035D01*
X36984D01*
Y37054D01*
X37003D01*
Y37072D01*
X37039D01*
Y37091D01*
X37058D01*
Y37109D01*
X37076D01*
Y37128D01*
X37095D01*
Y37146D01*
X37113D01*
Y37165D01*
X37150D01*
Y37183D01*
X37169D01*
Y37201D01*
X37206D01*
Y37220D01*
X37242D01*
Y37238D01*
X37279D01*
Y37257D01*
X37316D01*
Y37275D01*
X37335D01*
Y37294D01*
X37390D01*
Y37312D01*
X37427D01*
Y37331D01*
X37501D01*
Y37349D01*
X37575D01*
Y37368D01*
X37667D01*
Y37386D01*
X37981D01*
Y37368D01*
X38147D01*
Y37349D01*
X38276D01*
Y37331D01*
X38332D01*
Y37312D01*
X38405D01*
Y37294D01*
X38479D01*
Y37275D01*
X38535D01*
Y37257D01*
X38590D01*
Y37238D01*
X38645D01*
Y37220D01*
X38701D01*
Y37737D01*
X38719D01*
Y38180D01*
X38738D01*
Y38475D01*
X39162D01*
Y38493D01*
X39698D01*
Y38346D01*
D02*
G37*
G36*
X48835Y37349D02*
X48964D01*
Y37331D01*
X49019D01*
Y37312D01*
X49056D01*
Y37294D01*
X49075D01*
Y37275D01*
X49112D01*
Y37257D01*
X49130D01*
Y37238D01*
X49167D01*
Y37220D01*
X49185D01*
Y37201D01*
X49204D01*
Y37183D01*
X49222D01*
Y37165D01*
X49241D01*
Y37146D01*
X49259D01*
Y37128D01*
X49278D01*
Y37109D01*
X49296D01*
Y37091D01*
X49314D01*
Y37072D01*
X49333D01*
Y37054D01*
X49351D01*
Y37035D01*
X49370D01*
Y36998D01*
X49388D01*
Y36961D01*
X49407D01*
Y36943D01*
X49425D01*
Y36906D01*
X49444D01*
Y36888D01*
X49462D01*
Y36851D01*
X49481D01*
Y36814D01*
X49499D01*
Y36777D01*
X49518D01*
Y36740D01*
X49536D01*
Y36260D01*
X49554D01*
Y34636D01*
X49573D01*
Y34211D01*
X49167D01*
Y34230D01*
X48632D01*
Y34377D01*
X48613D01*
Y34820D01*
X48595D01*
Y36297D01*
X48576D01*
Y36389D01*
X48558D01*
Y36426D01*
X48539D01*
Y36445D01*
X48521D01*
Y36463D01*
X48502D01*
Y36481D01*
X48484D01*
Y36500D01*
X48465D01*
Y36518D01*
X48447D01*
Y36537D01*
X48410D01*
Y36555D01*
X48373D01*
Y36574D01*
X48318D01*
Y36592D01*
X48281D01*
Y36611D01*
X48170D01*
Y36629D01*
X47801D01*
Y36611D01*
X47727D01*
Y36592D01*
X47690D01*
Y36574D01*
X47653D01*
Y36555D01*
X47635D01*
Y36537D01*
X47598D01*
Y36518D01*
X47579D01*
Y36500D01*
X47561D01*
Y36445D01*
X47543D01*
Y36260D01*
X47524D01*
Y34230D01*
X46564D01*
Y34340D01*
X46546D01*
Y35282D01*
X46527D01*
Y36002D01*
X46509D01*
Y36260D01*
X46490D01*
Y36334D01*
X46472D01*
Y36389D01*
X46453D01*
Y36408D01*
X46435D01*
Y36445D01*
X46417D01*
Y36463D01*
X46398D01*
Y36500D01*
X46361D01*
Y36518D01*
X46343D01*
Y36537D01*
X46324D01*
Y36555D01*
X46287D01*
Y36592D01*
X46269D01*
Y36611D01*
X46250D01*
Y36629D01*
X46213D01*
Y36648D01*
X46121D01*
Y36666D01*
X45937D01*
Y36648D01*
X45807D01*
Y36629D01*
X45770D01*
Y36611D01*
X45715D01*
Y36592D01*
X45678D01*
Y36574D01*
X45641D01*
Y36555D01*
X45604D01*
Y36537D01*
X45567D01*
Y36518D01*
X45549D01*
Y36500D01*
X45531D01*
Y36481D01*
X45494D01*
Y35799D01*
X45512D01*
Y34230D01*
X44497D01*
Y34931D01*
X44478D01*
Y35743D01*
Y35762D01*
Y36980D01*
X44460D01*
Y37312D01*
X45272D01*
Y37294D01*
X45475D01*
Y37091D01*
X45494D01*
Y37017D01*
X45567D01*
Y37035D01*
X45604D01*
Y37054D01*
X45623D01*
Y37072D01*
X45660D01*
Y37091D01*
X45678D01*
Y37109D01*
X45715D01*
Y37128D01*
X45752D01*
Y37146D01*
X45770D01*
Y37165D01*
X45807D01*
Y37183D01*
X45826D01*
Y37201D01*
X45863D01*
Y37220D01*
X45881D01*
Y37238D01*
X45937D01*
Y37257D01*
X45992D01*
Y37275D01*
X46029D01*
Y37294D01*
X46084D01*
Y37312D01*
X46121D01*
Y37331D01*
X46213D01*
Y37349D01*
X46324D01*
Y37368D01*
X46693D01*
Y37349D01*
X46786D01*
Y37331D01*
X46859D01*
Y37312D01*
X46896D01*
Y37294D01*
X46933D01*
Y37275D01*
X46970D01*
Y37257D01*
X47007D01*
Y37238D01*
X47026D01*
Y37220D01*
X47063D01*
Y37201D01*
X47081D01*
Y37183D01*
X47100D01*
Y37165D01*
X47136D01*
Y37146D01*
X47155D01*
Y37128D01*
X47173D01*
Y37109D01*
X47192D01*
Y37091D01*
X47210D01*
Y37072D01*
X47229D01*
Y37054D01*
X47247D01*
Y37035D01*
X47284D01*
Y37017D01*
X47302D01*
Y36998D01*
X47321D01*
Y36980D01*
X47339D01*
Y36961D01*
X47358D01*
Y36943D01*
X47376D01*
Y36924D01*
X47395D01*
Y36906D01*
X47413D01*
Y36888D01*
X47432D01*
Y36869D01*
X47450D01*
Y36888D01*
X47469D01*
Y36906D01*
X47487D01*
Y36924D01*
X47524D01*
Y36943D01*
X47543D01*
Y36961D01*
X47561D01*
Y36980D01*
X47579D01*
Y36998D01*
X47598D01*
Y37017D01*
X47635D01*
Y37035D01*
X47653D01*
Y37054D01*
X47672D01*
Y37072D01*
X47709D01*
Y37091D01*
X47727D01*
Y37109D01*
X47764D01*
Y37128D01*
X47782D01*
Y37146D01*
X47819D01*
Y37165D01*
X47838D01*
Y37183D01*
X47875D01*
Y37201D01*
X47912D01*
Y37220D01*
X47949D01*
Y37238D01*
X47986D01*
Y37257D01*
X48004D01*
Y37275D01*
X48041D01*
Y37294D01*
X48078D01*
Y37312D01*
X48115D01*
Y37331D01*
X48170D01*
Y37349D01*
X48281D01*
Y37368D01*
X48835D01*
Y37349D01*
D02*
G37*
G36*
X42411Y37368D02*
X42577D01*
Y37349D01*
X42669D01*
Y37331D01*
X42743D01*
Y37312D01*
X42780D01*
Y37294D01*
X42836D01*
Y37275D01*
X42891D01*
Y37257D01*
X42946D01*
Y37238D01*
X42983D01*
Y37220D01*
X43020D01*
Y37201D01*
X43057D01*
Y37183D01*
X43075D01*
Y37165D01*
X43112D01*
Y37146D01*
X43149D01*
Y37128D01*
X43168D01*
Y37109D01*
X43186D01*
Y37091D01*
X43223D01*
Y37072D01*
X43242D01*
Y37054D01*
X43260D01*
Y37035D01*
X43279D01*
Y37017D01*
X43297D01*
Y36998D01*
X43315D01*
Y36980D01*
X43334D01*
Y36961D01*
X43352D01*
Y36943D01*
X43371D01*
Y36924D01*
X43389D01*
Y36906D01*
X43408D01*
Y36869D01*
X43426D01*
Y36851D01*
X43445D01*
Y36832D01*
X43463D01*
Y36795D01*
X43481D01*
Y36500D01*
X43500D01*
Y35854D01*
X43518D01*
Y34636D01*
X43537D01*
Y34230D01*
X42595D01*
Y34506D01*
X42577D01*
Y34543D01*
X42503D01*
Y34525D01*
X42485D01*
Y34506D01*
X42466D01*
Y34488D01*
X42429D01*
Y34470D01*
X42411D01*
Y34451D01*
X42393D01*
Y34433D01*
X42356D01*
Y34414D01*
X42337D01*
Y34396D01*
X42319D01*
Y34377D01*
X42282D01*
Y34359D01*
X42263D01*
Y34340D01*
X42226D01*
Y34322D01*
X42189D01*
Y34303D01*
X42153D01*
Y34285D01*
X42116D01*
Y34266D01*
X42060D01*
Y34248D01*
X42023D01*
Y34230D01*
X41986D01*
Y34211D01*
X41912D01*
Y34193D01*
X41820D01*
Y34174D01*
X41746D01*
Y34156D01*
X41267D01*
Y34174D01*
X41137D01*
Y34193D01*
X41082D01*
Y34211D01*
X41026D01*
Y34230D01*
X40971D01*
Y34248D01*
X40916D01*
Y34266D01*
X40897D01*
Y34285D01*
X40860D01*
Y34303D01*
X40842D01*
Y34322D01*
X40824D01*
Y34340D01*
X40787D01*
Y34359D01*
X40768D01*
Y34377D01*
X40750D01*
Y34396D01*
X40731D01*
Y34414D01*
X40713D01*
Y34433D01*
X40694D01*
Y34451D01*
X40676D01*
Y34470D01*
X40657D01*
Y34506D01*
X40639D01*
Y34525D01*
X40620D01*
Y34562D01*
X40602D01*
Y34599D01*
X40584D01*
Y34636D01*
X40565D01*
Y34673D01*
X40547D01*
Y34728D01*
X40528D01*
Y34783D01*
X40510D01*
Y34857D01*
X40491D01*
Y34986D01*
X40473D01*
Y35356D01*
X40491D01*
Y35429D01*
X40510D01*
Y35503D01*
X40528D01*
Y35559D01*
X40547D01*
Y35577D01*
X40565D01*
Y35614D01*
X40584D01*
Y35632D01*
X40602D01*
Y35669D01*
X40620D01*
Y35688D01*
X40639D01*
Y35706D01*
X40657D01*
Y35725D01*
X40676D01*
Y35743D01*
X40713D01*
Y35780D01*
X40750D01*
Y35799D01*
X40768D01*
Y35817D01*
X40787D01*
Y35835D01*
X40805D01*
Y35854D01*
X40842D01*
Y35872D01*
X40860D01*
Y35891D01*
X40879D01*
Y35909D01*
X40916D01*
Y35928D01*
X40953D01*
Y35946D01*
X40971D01*
Y35965D01*
X41008D01*
Y35983D01*
X41045D01*
Y36002D01*
X41100D01*
Y36020D01*
X41156D01*
Y36039D01*
X41193D01*
Y36057D01*
X41267D01*
Y36075D01*
X41340D01*
Y36094D01*
X41396D01*
Y36112D01*
X41469D01*
Y36131D01*
X41580D01*
Y36149D01*
X41673D01*
Y36168D01*
X41783D01*
Y36186D01*
X41894D01*
Y36205D01*
X42042D01*
Y36223D01*
X42226D01*
Y36242D01*
X42411D01*
Y36260D01*
X42522D01*
Y36279D01*
X42559D01*
Y36408D01*
X42540D01*
Y36463D01*
X42522D01*
Y36500D01*
X42503D01*
Y36518D01*
X42485D01*
Y36555D01*
X42466D01*
Y36574D01*
X42448D01*
Y36592D01*
X42429D01*
Y36611D01*
X42411D01*
Y36629D01*
X42393D01*
Y36648D01*
X42374D01*
Y36666D01*
X42356D01*
Y36685D01*
X42319D01*
Y36703D01*
X42282D01*
Y36722D01*
X42208D01*
Y36740D01*
X42153D01*
Y36758D01*
X42005D01*
Y36777D01*
X41746D01*
Y36758D01*
X41562D01*
Y36740D01*
X41451D01*
Y36722D01*
X41322D01*
Y36703D01*
X41248D01*
Y36685D01*
X41156D01*
Y36666D01*
X41082D01*
Y36648D01*
X41008D01*
Y36629D01*
X40934D01*
Y36611D01*
X40860D01*
Y36592D01*
X40805D01*
Y36574D01*
X40731D01*
Y36555D01*
X40694D01*
Y37220D01*
X40713D01*
Y37275D01*
X40731D01*
Y37294D01*
X40879D01*
Y37312D01*
X41008D01*
Y37331D01*
X41156D01*
Y37349D01*
X41303D01*
Y37368D01*
X41580D01*
Y37386D01*
X42411D01*
Y37368D01*
D02*
G37*
G36*
X34621Y38254D02*
X34640D01*
Y38198D01*
X34658D01*
Y38143D01*
X34677D01*
Y38087D01*
X34695D01*
Y38032D01*
X34714D01*
Y37977D01*
X34732D01*
Y37940D01*
X34751D01*
Y37884D01*
X34769D01*
Y37829D01*
X34787D01*
Y37774D01*
X34806D01*
Y37737D01*
X34824D01*
Y37681D01*
X34843D01*
Y37644D01*
X34861D01*
Y37589D01*
X34880D01*
Y37534D01*
X34898D01*
Y37478D01*
X34917D01*
Y37441D01*
X34935D01*
Y37386D01*
X34954D01*
Y37331D01*
X34972D01*
Y37294D01*
X34991D01*
Y37238D01*
X35009D01*
Y37183D01*
X35027D01*
Y37146D01*
X35046D01*
Y37091D01*
X35064D01*
Y37035D01*
X35083D01*
Y36998D01*
X35101D01*
Y36943D01*
X35120D01*
Y36888D01*
X35138D01*
Y36851D01*
X35157D01*
Y36795D01*
X35175D01*
Y36740D01*
X35194D01*
Y36703D01*
X35212D01*
Y36648D01*
X35230D01*
Y36592D01*
X35249D01*
Y36555D01*
X35267D01*
Y36500D01*
X35286D01*
Y36445D01*
X35304D01*
Y36408D01*
X35323D01*
Y36352D01*
X35341D01*
Y36297D01*
X35360D01*
Y36260D01*
X35378D01*
Y36205D01*
X35397D01*
Y36149D01*
X35415D01*
Y36112D01*
X35434D01*
Y36057D01*
X35452D01*
Y36002D01*
X35470D01*
Y35965D01*
X35489D01*
Y35909D01*
X35507D01*
Y35854D01*
X35526D01*
Y35817D01*
X35544D01*
Y35762D01*
X35563D01*
Y35706D01*
X35581D01*
Y35669D01*
X35600D01*
Y35614D01*
X35618D01*
Y35559D01*
X35637D01*
Y35522D01*
X35655D01*
Y35466D01*
X35673D01*
Y35411D01*
X35692D01*
Y35374D01*
X35710D01*
Y35319D01*
X35729D01*
Y35263D01*
X35747D01*
Y35208D01*
X35766D01*
Y35171D01*
X35784D01*
Y35116D01*
X35803D01*
Y35060D01*
X35821D01*
Y35005D01*
X35840D01*
Y34968D01*
X35858D01*
Y34912D01*
X35877D01*
Y34857D01*
X35895D01*
Y34820D01*
X35914D01*
Y34765D01*
X35932D01*
Y34710D01*
X35950D01*
Y34654D01*
X35969D01*
Y34599D01*
X35987D01*
Y34562D01*
X36006D01*
Y34506D01*
X36024D01*
Y34451D01*
X36043D01*
Y34396D01*
X36061D01*
Y34340D01*
X36080D01*
Y34266D01*
X36098D01*
Y34230D01*
X35064D01*
Y34248D01*
X35046D01*
Y34303D01*
X35027D01*
Y34340D01*
X35009D01*
Y34414D01*
X34991D01*
Y34451D01*
X34972D01*
Y34506D01*
X34954D01*
Y34562D01*
X34935D01*
Y34617D01*
X34917D01*
Y34673D01*
X34898D01*
Y34728D01*
X34880D01*
Y34783D01*
X34861D01*
Y34820D01*
X34843D01*
Y34876D01*
X34824D01*
Y34931D01*
X34806D01*
Y34986D01*
X34787D01*
Y35042D01*
X34769D01*
Y35060D01*
X34141D01*
Y35042D01*
X33569D01*
Y35023D01*
X33255D01*
Y35005D01*
X33200D01*
Y34986D01*
X33182D01*
Y34931D01*
X33163D01*
Y34876D01*
X33145D01*
Y34820D01*
X33126D01*
Y34783D01*
X33108D01*
Y34728D01*
X33089D01*
Y34673D01*
X33071D01*
Y34617D01*
X33052D01*
Y34562D01*
X33034D01*
Y34506D01*
X33015D01*
Y34451D01*
X32997D01*
Y34396D01*
X32978D01*
Y34340D01*
X32960D01*
Y34285D01*
X32942D01*
Y34230D01*
X31926D01*
Y34340D01*
X31945D01*
Y34414D01*
X31963D01*
Y34488D01*
X31982D01*
Y34543D01*
X32000D01*
Y34599D01*
X32019D01*
Y34654D01*
X32037D01*
Y34710D01*
X32056D01*
Y34765D01*
X32074D01*
Y34802D01*
X32092D01*
Y34857D01*
X32111D01*
Y34912D01*
X32129D01*
Y34968D01*
X32148D01*
Y35005D01*
X32166D01*
Y35060D01*
X32185D01*
Y35116D01*
X32203D01*
Y35171D01*
X32222D01*
Y35208D01*
X32240D01*
Y35263D01*
X32259D01*
Y35319D01*
X32277D01*
Y35374D01*
X32296D01*
Y35411D01*
X32314D01*
Y35466D01*
X32333D01*
Y35522D01*
X32351D01*
Y35559D01*
X32369D01*
Y35614D01*
X32388D01*
Y35669D01*
X32406D01*
Y35706D01*
X32425D01*
Y35762D01*
X32443D01*
Y35817D01*
X32462D01*
Y35854D01*
X32480D01*
Y35909D01*
X32499D01*
Y35965D01*
X32517D01*
Y36002D01*
X32535D01*
Y36057D01*
X32554D01*
Y36112D01*
X32572D01*
Y36149D01*
X32591D01*
Y36205D01*
X32609D01*
Y36260D01*
X32628D01*
Y36297D01*
X32646D01*
Y36352D01*
X32665D01*
Y36408D01*
X32683D01*
Y36445D01*
X32702D01*
Y36500D01*
X32720D01*
Y36555D01*
X32739D01*
Y36592D01*
X32757D01*
Y36648D01*
X32776D01*
Y36703D01*
X32794D01*
Y36740D01*
X32812D01*
Y36795D01*
X32831D01*
Y36851D01*
X32849D01*
Y36888D01*
X32868D01*
Y36943D01*
X32886D01*
Y36998D01*
X32905D01*
Y37035D01*
X32923D01*
Y37091D01*
X32942D01*
Y37146D01*
X32960D01*
Y37183D01*
X32978D01*
Y37238D01*
X32997D01*
Y37294D01*
X33015D01*
Y37349D01*
X33034D01*
Y37386D01*
X33052D01*
Y37441D01*
X33071D01*
Y37478D01*
X33089D01*
Y37534D01*
X33108D01*
Y37589D01*
X33126D01*
Y37644D01*
X33145D01*
Y37681D01*
X33163D01*
Y37737D01*
X33182D01*
Y37792D01*
X33200D01*
Y37848D01*
X33219D01*
Y37884D01*
X33237D01*
Y37940D01*
X33255D01*
Y37995D01*
X33274D01*
Y38032D01*
X33292D01*
Y38087D01*
X33311D01*
Y38143D01*
X33329D01*
Y38180D01*
X33348D01*
Y38235D01*
X33366D01*
Y38272D01*
X34621D01*
Y38254D01*
D02*
G37*
G36*
X46638Y32531D02*
X45807D01*
Y32716D01*
Y32734D01*
Y33141D01*
X46601D01*
Y33122D01*
X46619D01*
Y33141D01*
X46638D01*
Y32531D01*
D02*
G37*
G36*
X39900Y30390D02*
X39125D01*
Y30593D01*
X39107D01*
Y30630D01*
X39070D01*
Y30612D01*
X39051D01*
Y30593D01*
X39015D01*
Y30575D01*
X38996D01*
Y30556D01*
X38959D01*
Y30538D01*
X38941D01*
Y30519D01*
X38904D01*
Y30501D01*
X38867D01*
Y30483D01*
X38830D01*
Y30464D01*
X38793D01*
Y30446D01*
X38775D01*
Y30427D01*
X38719D01*
Y30409D01*
X38664D01*
Y30390D01*
X38608D01*
Y30372D01*
X38535D01*
Y30353D01*
X38184D01*
Y30372D01*
X38092D01*
Y30390D01*
X38018D01*
Y30409D01*
X37944D01*
Y30427D01*
X37889D01*
Y30446D01*
X37870D01*
Y30464D01*
X37833D01*
Y30483D01*
X37815D01*
Y30501D01*
X37796D01*
Y30519D01*
X37778D01*
Y30538D01*
X37759D01*
Y30556D01*
X37741D01*
Y30575D01*
X37722D01*
Y30593D01*
X37704D01*
Y30612D01*
X37685D01*
Y30630D01*
X37667D01*
Y30649D01*
X37649D01*
Y30685D01*
X37630D01*
Y30704D01*
X37612D01*
Y30741D01*
X37593D01*
Y30778D01*
X37575D01*
Y30852D01*
X37556D01*
Y30981D01*
X37538D01*
Y31387D01*
X37519D01*
Y32771D01*
X38184D01*
Y32753D01*
X38276D01*
Y32088D01*
X38295D01*
Y31313D01*
X38313D01*
Y31128D01*
X38332D01*
Y31092D01*
X38350D01*
Y31055D01*
X38368D01*
Y31036D01*
X38387D01*
Y31018D01*
X38424D01*
Y30999D01*
X38442D01*
Y30981D01*
X38461D01*
Y30962D01*
X38498D01*
Y30944D01*
X38572D01*
Y30926D01*
X38830D01*
Y30944D01*
X38867D01*
Y30962D01*
X38941D01*
Y30981D01*
X38978D01*
Y30999D01*
X39033D01*
Y31018D01*
X39070D01*
Y31036D01*
X39107D01*
Y31055D01*
X39125D01*
Y32771D01*
X39900D01*
Y30390D01*
D02*
G37*
G36*
X43980Y32827D02*
X44146D01*
Y32808D01*
X44257D01*
Y32790D01*
X44331D01*
Y32771D01*
X44386D01*
Y32753D01*
X44441D01*
Y32734D01*
X44478D01*
Y32716D01*
X44515D01*
Y32697D01*
X44552D01*
Y32679D01*
X44589D01*
Y32661D01*
X44626D01*
Y32642D01*
X44644D01*
Y32624D01*
X44663D01*
Y32605D01*
X44681D01*
Y32587D01*
X44718D01*
Y32568D01*
X44737D01*
Y32550D01*
X44755D01*
Y32513D01*
X44774D01*
Y32495D01*
X44792D01*
Y32476D01*
X44811D01*
Y32458D01*
X44829D01*
Y32421D01*
X44848D01*
Y32384D01*
X44866D01*
Y32328D01*
X44884D01*
Y32273D01*
X44903D01*
Y32162D01*
X44921D01*
Y31978D01*
X44940D01*
Y30538D01*
X44921D01*
Y30409D01*
X44811D01*
Y30390D01*
X44183D01*
Y30483D01*
X44164D01*
Y30575D01*
X44146D01*
Y30612D01*
X44091D01*
Y30593D01*
X44054D01*
Y30575D01*
X44017D01*
Y30556D01*
X43998D01*
Y30538D01*
X43962D01*
Y30519D01*
X43924D01*
Y30501D01*
X43888D01*
Y30483D01*
X43851D01*
Y30464D01*
X43814D01*
Y30446D01*
X43758D01*
Y30427D01*
X43703D01*
Y30409D01*
X43666D01*
Y30390D01*
X43592D01*
Y30372D01*
X43500D01*
Y30353D01*
X43371D01*
Y30335D01*
X43297D01*
Y30353D01*
X43149D01*
Y30372D01*
X43112D01*
Y30390D01*
X43057D01*
Y30409D01*
X43002D01*
Y30427D01*
X42983D01*
Y30446D01*
X42946D01*
Y30464D01*
X42928D01*
Y30483D01*
X42891D01*
Y30501D01*
X42854D01*
Y30519D01*
X42836D01*
Y30538D01*
X42817D01*
Y30556D01*
X42799D01*
Y30575D01*
X42780D01*
Y30593D01*
X42762D01*
Y30612D01*
X42743D01*
Y30630D01*
X42725D01*
Y30649D01*
X42706D01*
Y30685D01*
X42688D01*
Y30722D01*
X42669D01*
Y30759D01*
X42651D01*
Y30778D01*
X42632D01*
Y30815D01*
X42614D01*
Y30889D01*
X42595D01*
Y30944D01*
X42577D01*
Y31202D01*
X42595D01*
Y31295D01*
X42614D01*
Y31332D01*
X42632D01*
Y31368D01*
X42651D01*
Y31405D01*
X42669D01*
Y31442D01*
X42688D01*
Y31479D01*
X42706D01*
Y31498D01*
X42725D01*
Y31516D01*
X42743D01*
Y31535D01*
X42762D01*
Y31553D01*
X42780D01*
Y31571D01*
X42799D01*
Y31590D01*
X42817D01*
Y31608D01*
X42836D01*
Y31627D01*
X42854D01*
Y31645D01*
X42891D01*
Y31664D01*
X42909D01*
Y31682D01*
X42946D01*
Y31701D01*
X42965D01*
Y31719D01*
X43002D01*
Y31738D01*
X43038D01*
Y31756D01*
X43075D01*
Y31775D01*
X43112D01*
Y31793D01*
X43168D01*
Y31811D01*
X43205D01*
Y31830D01*
X43279D01*
Y31848D01*
X43334D01*
Y31867D01*
X43408D01*
Y31885D01*
X43481D01*
Y31904D01*
X43629D01*
Y31922D01*
X43758D01*
Y31941D01*
X43962D01*
Y31959D01*
X44091D01*
Y31978D01*
X44146D01*
Y31996D01*
X44164D01*
Y32051D01*
X44146D01*
Y32107D01*
X44128D01*
Y32144D01*
X44109D01*
Y32162D01*
X44091D01*
Y32181D01*
X44072D01*
Y32199D01*
X44054D01*
Y32218D01*
X44035D01*
Y32236D01*
X43980D01*
Y32254D01*
X43943D01*
Y32273D01*
X43888D01*
Y32291D01*
X43795D01*
Y32310D01*
X43685D01*
Y32328D01*
X43445D01*
Y32310D01*
X43352D01*
Y32291D01*
X43260D01*
Y32273D01*
X43186D01*
Y32254D01*
X43112D01*
Y32236D01*
X43038D01*
Y32218D01*
X42946D01*
Y32199D01*
X42854D01*
Y32181D01*
X42743D01*
Y32661D01*
X42762D01*
Y32716D01*
X42799D01*
Y32734D01*
X42836D01*
Y32753D01*
X42891D01*
Y32771D01*
X42965D01*
Y32790D01*
X43075D01*
Y32808D01*
X43186D01*
Y32827D01*
X43371D01*
Y32845D01*
X43980D01*
Y32827D01*
D02*
G37*
G36*
X41377Y32495D02*
X41396D01*
Y32458D01*
X41433D01*
Y32476D01*
X41451D01*
Y32495D01*
X41488D01*
Y32513D01*
X41506D01*
Y32531D01*
X41525D01*
Y32550D01*
X41543D01*
Y32568D01*
X41580D01*
Y32587D01*
X41617D01*
Y32605D01*
X41654D01*
Y32624D01*
X41673D01*
Y32642D01*
X41728D01*
Y32661D01*
X41783D01*
Y32679D01*
X41839D01*
Y32697D01*
X41912D01*
Y32716D01*
X41986D01*
Y32734D01*
X42171D01*
Y32753D01*
X42300D01*
Y32088D01*
X41839D01*
Y32070D01*
X41673D01*
Y32051D01*
X41543D01*
Y32033D01*
X41469D01*
Y32015D01*
X41414D01*
Y31978D01*
X41396D01*
Y31885D01*
X41377D01*
Y31202D01*
Y31184D01*
Y30889D01*
X41359D01*
Y30390D01*
X40639D01*
Y30409D01*
X40620D01*
Y30501D01*
X40602D01*
Y32753D01*
X40676D01*
Y32771D01*
X41377D01*
Y32495D01*
D02*
G37*
G36*
X44977Y33251D02*
X36098D01*
Y29910D01*
X36080D01*
Y29892D01*
X35323D01*
Y33251D01*
X31926D01*
Y33879D01*
X44977D01*
Y33251D01*
D02*
G37*
G36*
X46638Y31756D02*
Y31738D01*
Y30796D01*
X46619D01*
Y29763D01*
X46601D01*
Y29726D01*
X46583D01*
Y29689D01*
X46564D01*
Y29652D01*
X46546D01*
Y29633D01*
X46527D01*
Y29596D01*
X46509D01*
Y29578D01*
X46490D01*
Y29541D01*
X46472D01*
Y29523D01*
X46453D01*
Y29486D01*
X46435D01*
Y29467D01*
X46417D01*
Y29449D01*
X46380D01*
Y29430D01*
X46361D01*
Y29412D01*
X46343D01*
Y29393D01*
X46324D01*
Y29375D01*
X46306D01*
Y29357D01*
X46269D01*
Y29338D01*
X46232D01*
Y29320D01*
X46195D01*
Y29301D01*
X46140D01*
Y29283D01*
X46103D01*
Y29264D01*
X46047D01*
Y29246D01*
X45955D01*
Y29227D01*
X45697D01*
Y29209D01*
X45457D01*
Y29227D01*
X45180D01*
Y29246D01*
X45124D01*
Y29763D01*
X45290D01*
Y29744D01*
X45586D01*
Y29763D01*
X45697D01*
Y29781D01*
X45733D01*
Y29800D01*
X45770D01*
Y29818D01*
X45789D01*
Y29836D01*
X45807D01*
Y29855D01*
X45826D01*
Y29873D01*
X45844D01*
Y29910D01*
X45863D01*
Y30649D01*
X45881D01*
Y30796D01*
X45863D01*
Y31922D01*
X45420D01*
Y32291D01*
X45438D01*
Y32439D01*
X46638D01*
Y31756D01*
D02*
G37*
%LPC*%
G36*
X38498Y36685D02*
X38055D01*
Y36666D01*
X37981D01*
Y36648D01*
X37907D01*
Y36629D01*
X37870D01*
Y36611D01*
X37833D01*
Y36592D01*
X37815D01*
Y36574D01*
X37796D01*
Y36555D01*
X37759D01*
Y36537D01*
X37741D01*
Y36518D01*
X37722D01*
Y36500D01*
X37704D01*
Y36481D01*
X37685D01*
Y36463D01*
X37667D01*
Y36426D01*
X37649D01*
Y36408D01*
X37630D01*
Y36371D01*
X37612D01*
Y36334D01*
X37593D01*
Y36297D01*
X37575D01*
Y36260D01*
X37556D01*
Y36242D01*
Y36223D01*
Y36205D01*
X37538D01*
Y36131D01*
X37519D01*
Y36057D01*
X37501D01*
Y35965D01*
X37483D01*
Y35780D01*
X37464D01*
Y35577D01*
X37483D01*
Y35411D01*
X37501D01*
Y35374D01*
X37519D01*
Y35300D01*
X37538D01*
Y35245D01*
X37556D01*
Y35208D01*
X37575D01*
Y35171D01*
X37593D01*
Y35153D01*
X37612D01*
Y35116D01*
X37630D01*
Y35097D01*
X37649D01*
Y35079D01*
X37667D01*
Y35060D01*
X37685D01*
Y35023D01*
X37704D01*
Y35005D01*
X37741D01*
Y34986D01*
X37759D01*
Y34968D01*
X37796D01*
Y34949D01*
X37815D01*
Y34931D01*
X37870D01*
Y34912D01*
X37925D01*
Y34894D01*
X37981D01*
Y34876D01*
X38165D01*
Y34857D01*
X38295D01*
Y34876D01*
X38461D01*
Y34894D01*
X38516D01*
Y34912D01*
X38553D01*
Y34931D01*
X38572D01*
Y34949D01*
X38608D01*
Y34968D01*
X38627D01*
Y34986D01*
X38645D01*
Y35005D01*
X38664D01*
Y35023D01*
X38701D01*
Y35042D01*
X38719D01*
Y36002D01*
X38738D01*
Y36629D01*
X38682D01*
Y36648D01*
X38608D01*
Y36666D01*
X38498D01*
Y36685D01*
D02*
G37*
G36*
X42595Y35688D02*
X42300D01*
Y35669D01*
X42116D01*
Y35651D01*
X41986D01*
Y35632D01*
X41894D01*
Y35614D01*
X41820D01*
Y35596D01*
X41783D01*
Y35577D01*
X41728D01*
Y35559D01*
X41691D01*
Y35540D01*
X41654D01*
Y35522D01*
X41636D01*
Y35503D01*
X41599D01*
Y35485D01*
X41580D01*
Y35466D01*
X41562D01*
Y35448D01*
X41543D01*
Y35429D01*
X41525D01*
Y35392D01*
X41506D01*
Y35374D01*
X41488D01*
Y35319D01*
X41469D01*
Y35245D01*
X41451D01*
Y35060D01*
X41469D01*
Y34986D01*
X41488D01*
Y34949D01*
X41506D01*
Y34912D01*
X41525D01*
Y34876D01*
X41562D01*
Y34857D01*
X41580D01*
Y34839D01*
X41599D01*
Y34820D01*
X41617D01*
Y34802D01*
X41654D01*
Y34783D01*
X41710D01*
Y34765D01*
X41783D01*
Y34746D01*
X41968D01*
Y34765D01*
X42097D01*
Y34783D01*
X42189D01*
Y34802D01*
X42263D01*
Y34820D01*
X42319D01*
Y34839D01*
X42374D01*
Y34857D01*
X42429D01*
Y34876D01*
X42448D01*
Y34894D01*
X42485D01*
Y34912D01*
X42503D01*
Y34931D01*
X42540D01*
Y34949D01*
X42559D01*
Y34986D01*
X42577D01*
Y35060D01*
X42595D01*
Y35688D01*
D02*
G37*
G36*
X33994Y37257D02*
X33975D01*
Y37201D01*
X33957D01*
Y37146D01*
X33938D01*
Y37109D01*
X33920D01*
Y37054D01*
X33902D01*
Y36998D01*
X33883D01*
Y36943D01*
X33865D01*
Y36888D01*
X33846D01*
Y36851D01*
X33828D01*
Y36795D01*
X33809D01*
Y36740D01*
X33791D01*
Y36703D01*
X33772D01*
Y36648D01*
X33754D01*
Y36592D01*
X33735D01*
Y36537D01*
X33717D01*
Y36481D01*
X33698D01*
Y36426D01*
X33680D01*
Y36371D01*
X33661D01*
Y36334D01*
X33643D01*
Y36279D01*
X33625D01*
Y36223D01*
X33606D01*
Y36186D01*
X33588D01*
Y36131D01*
X33569D01*
Y36075D01*
X33551D01*
Y36039D01*
X33532D01*
Y35983D01*
X33514D01*
Y35928D01*
X33495D01*
Y35872D01*
X33477D01*
Y35835D01*
X33458D01*
Y35780D01*
X34418D01*
Y35799D01*
X34474D01*
Y35891D01*
X34455D01*
Y35946D01*
X34437D01*
Y36002D01*
X34418D01*
Y36075D01*
X34400D01*
Y36112D01*
X34381D01*
Y36186D01*
X34363D01*
Y36242D01*
X34345D01*
Y36297D01*
X34326D01*
Y36352D01*
X34308D01*
Y36408D01*
X34289D01*
Y36463D01*
X34271D01*
Y36518D01*
X34252D01*
Y36574D01*
X34234D01*
Y36629D01*
X34215D01*
Y36685D01*
X34197D01*
Y36740D01*
X34178D01*
Y36795D01*
X34160D01*
Y36851D01*
X34141D01*
Y36906D01*
X34123D01*
Y36961D01*
X34104D01*
Y36998D01*
X34086D01*
Y37054D01*
X34068D01*
Y37109D01*
X34049D01*
Y37165D01*
X34031D01*
Y37220D01*
X34012D01*
Y37238D01*
X33994D01*
Y37257D01*
D02*
G37*
G36*
X44164Y31535D02*
X44072D01*
Y31516D01*
X43869D01*
Y31498D01*
X43722D01*
Y31479D01*
X43648D01*
Y31461D01*
X43574D01*
Y31442D01*
X43537D01*
Y31424D01*
X43500D01*
Y31405D01*
X43463D01*
Y31387D01*
X43445D01*
Y31368D01*
X43426D01*
Y31350D01*
X43408D01*
Y31332D01*
X43389D01*
Y31295D01*
X43371D01*
Y31258D01*
X43352D01*
Y31202D01*
X43334D01*
Y31018D01*
X43352D01*
Y30981D01*
X43371D01*
Y30944D01*
X43389D01*
Y30926D01*
X43408D01*
Y30907D01*
X43426D01*
Y30889D01*
X43463D01*
Y30870D01*
X43481D01*
Y30852D01*
X43555D01*
Y30833D01*
X43629D01*
Y30815D01*
X43703D01*
Y30833D01*
X43851D01*
Y30852D01*
X43924D01*
Y30870D01*
X43980D01*
Y30889D01*
X44017D01*
Y30907D01*
X44054D01*
Y30926D01*
X44091D01*
Y30944D01*
X44109D01*
Y30962D01*
X44128D01*
Y30981D01*
X44146D01*
Y31036D01*
X44164D01*
Y31535D01*
D02*
G37*
%LPD*%
D10*
X46898Y53685D02*
G03*
X46898Y53685I-394J0D01*
G01*
X58492Y34941D02*
G03*
X58492Y34941I-394J0D01*
G01*
X72441Y34488D02*
X77559D01*
X72441Y43150D02*
X77559D01*
X84702Y48101D02*
Y53899D01*
X79298Y48101D02*
Y53899D01*
X67101Y55202D02*
X72899D01*
X67101Y49798D02*
X72899D01*
X60601Y79202D02*
X66399D01*
X60601Y73798D02*
X66399D01*
X86101Y49298D02*
X91899D01*
X86101Y54702D02*
X91899D01*
X71101Y79702D02*
X76899D01*
X71101Y74298D02*
X76899D01*
X88492Y16831D02*
Y21752D01*
X53295Y16831D02*
Y21752D01*
X88492Y1083D02*
Y6122D01*
X53295Y1083D02*
Y6122D01*
X14905Y74669D02*
X21598D01*
X14905Y80968D02*
X21598D01*
X14905Y81760D02*
X21598D01*
X14905Y88059D02*
X21598D01*
X108811Y55823D02*
X135189D01*
X108811Y45587D02*
X135189D01*
Y55823D01*
X108811Y45587D02*
Y55823D01*
X21319Y139819D02*
X23681D01*
X2811Y49716D02*
X29189D01*
Y64284D01*
X2811D02*
X29189D01*
X2811Y49716D02*
Y64284D01*
X23653Y40347D02*
X30347D01*
X23653Y33654D02*
X30347D01*
X110539Y119472D02*
X118461D01*
X110539Y126165D02*
X118461D01*
X13024Y33531D02*
X19913D01*
X13055Y40165D02*
X19945D01*
X85539Y41153D02*
X93461D01*
X85539Y47846D02*
X93461D01*
X25153Y135858D02*
Y143780D01*
X31846Y135858D02*
Y143780D01*
X112153Y80972D02*
Y87665D01*
X118846Y80972D02*
Y87665D01*
X23787Y153842D02*
Y160732D01*
X17154Y153874D02*
Y160764D01*
X105535Y42106D02*
X112425D01*
X105504Y35472D02*
X112394D01*
X31346Y153972D02*
Y160665D01*
X24654Y153972D02*
Y160665D01*
X113654Y70472D02*
X120346D01*
X113654Y77165D02*
X120346D01*
X125654D02*
X132346D01*
X125654Y70472D02*
X132346D01*
X22201Y151665D02*
X28894D01*
X22201Y144972D02*
X28894D01*
D11*
X68012Y40748D02*
G03*
X68012Y40748I-492J0D01*
G01*
X11953Y77819D02*
G03*
X11953Y77819I-492J0D01*
G01*
Y84910D02*
G03*
X11953Y84910I-492J0D01*
G01*
X135681Y62319D02*
G03*
X135681Y62319I-492J0D01*
G01*
X7240Y38496D02*
G03*
X7240Y38496I-492J0D01*
G01*
X123252Y76173D02*
G03*
X123252Y76173I-492J0D01*
G01*
X32984Y39296D02*
Y43232D01*
X34296Y41920D01*
X35608Y43232D01*
Y39296D01*
X37576Y41920D02*
X38888D01*
X39544Y41264D01*
Y39296D01*
X37576D01*
X36920Y39952D01*
X37576Y40608D01*
X39544D01*
X43479Y43232D02*
Y39296D01*
X41512D01*
X40856Y39952D01*
Y41264D01*
X41512Y41920D01*
X43479D01*
X46759Y39296D02*
X45447D01*
X44791Y39952D01*
Y41264D01*
X45447Y41920D01*
X46759D01*
X47415Y41264D01*
Y40608D01*
X44791D01*
X52663Y43232D02*
Y39296D01*
X54631D01*
X55287Y39952D01*
Y40608D01*
Y41264D01*
X54631Y41920D01*
X52663D01*
X56599D02*
Y39952D01*
X57255Y39296D01*
X59223D01*
Y38640D01*
X58566Y37984D01*
X57911D01*
X59223Y39296D02*
Y41920D01*
X60534D02*
X61190D01*
Y41264D01*
X60534D01*
Y41920D01*
Y39952D02*
X61190D01*
Y39296D01*
X60534D01*
Y39952D01*
X35608Y48420D02*
X32984D01*
Y44484D01*
X35608D01*
X32984Y46452D02*
X34296D01*
X39544Y47764D02*
X38888Y48420D01*
X37576D01*
X36920Y47764D01*
Y47108D01*
X37576Y46452D01*
X38888D01*
X39544Y45796D01*
Y45140D01*
X38888Y44484D01*
X37576D01*
X36920Y45140D01*
X40856Y44484D02*
Y48420D01*
X42824D01*
X43479Y47764D01*
Y46452D01*
X42824Y45796D01*
X40856D01*
X44791Y46452D02*
X47415D01*
X51351Y47764D02*
X50695Y48420D01*
X49383D01*
X48727Y47764D01*
Y45140D01*
X49383Y44484D01*
X50695D01*
X51351Y45140D01*
X52663Y44484D02*
Y47108D01*
X53975Y48420D01*
X55287Y47108D01*
Y44484D01*
Y46452D01*
X52663D01*
X56599Y44484D02*
Y48420D01*
X57911Y47108D01*
X59223Y48420D01*
Y44484D01*
X64470Y47108D02*
X65782Y44484D01*
X67094Y47108D01*
X68406Y44484D02*
X69718D01*
X69062D01*
Y48420D01*
X68406Y47764D01*
X71686Y44484D02*
Y45140D01*
X72342D01*
Y44484D01*
X71686D01*
X74966D02*
X76277D01*
X75621D01*
Y48420D01*
X74966Y47764D01*
D12*
X100126Y59886D02*
X106740D01*
X31543D02*
X38157D01*
X100126Y72051D02*
X106740D01*
X31543D02*
X38157D01*
X106740Y59886D02*
Y72051D01*
X31543Y59886D02*
Y72051D01*
X132504Y84342D02*
Y87295D01*
X125417Y89264D02*
X127583D01*
X120496Y84342D02*
Y87295D01*
D13*
X106844Y160827D02*
Y162957D01*
X101454Y86357D02*
X106844D01*
X34944D02*
Y89707D01*
Y86357D02*
X40334D01*
X34944Y160827D02*
Y162957D01*
X106844D01*
Y86357D02*
Y89707D01*
D14*
X92252Y14102D02*
X98748D01*
D15*
X10960Y130168D02*
X11944D01*
X11452D01*
Y127216D01*
X10960D01*
X11944D01*
X14896Y130168D02*
X13912D01*
X13420Y129676D01*
Y127708D01*
X13912Y127216D01*
X14896D01*
X15388Y127708D01*
Y129676D01*
X14896Y130168D01*
X16372Y127216D02*
X17356D01*
X16864D01*
Y130168D01*
X16372Y129676D01*
X20800Y130168D02*
X19816Y129676D01*
X18832Y128692D01*
Y127708D01*
X19324Y127216D01*
X20308D01*
X20800Y127708D01*
Y128200D01*
X20308Y128692D01*
X18832D01*
X10960Y124263D02*
X11944D01*
X11452D01*
Y121311D01*
X10960D01*
X11944D01*
X14896Y124263D02*
X13912D01*
X13420Y123771D01*
Y121803D01*
X13912Y121311D01*
X14896D01*
X15388Y121803D01*
Y123771D01*
X14896Y124263D01*
X16372Y121311D02*
X17356D01*
X16864D01*
Y124263D01*
X16372Y123771D01*
X18832Y124263D02*
X20800D01*
Y123771D01*
X18832Y121803D01*
Y121311D01*
X124088Y151496D02*
X123596Y151988D01*
Y152972D01*
X124088Y153464D01*
X124580D01*
X125072Y152972D01*
Y152480D01*
Y152972D01*
X125564Y153464D01*
X126055D01*
X126547Y152972D01*
Y151988D01*
X126055Y151496D01*
X123596Y154448D02*
X125564D01*
X126547Y155432D01*
X125564Y156416D01*
X123596D01*
X124088Y157400D02*
X123596Y157892D01*
Y158876D01*
X124088Y159368D01*
X124580D01*
X125072Y158876D01*
Y158384D01*
Y158876D01*
X125564Y159368D01*
X126055D01*
X126547Y158876D01*
Y157892D01*
X126055Y157400D01*
X122209Y145209D02*
Y148161D01*
X123685D01*
X124177Y147669D01*
Y146685D01*
X123685Y146193D01*
X122209D01*
X123193D02*
X124177Y145209D01*
X125161Y148161D02*
X127128Y145209D01*
Y148161D02*
X125161Y145209D01*
X122209Y142160D02*
X124177D01*
X123193D01*
Y139209D01*
X125161Y142160D02*
X127128Y139209D01*
Y142160D02*
X125161Y139209D01*
X121677Y137169D02*
X121185Y137661D01*
X120201D01*
X119709Y137169D01*
Y135201D01*
X120201Y134709D01*
X121185D01*
X121677Y135201D01*
Y136185D01*
X120693D01*
X122661Y134709D02*
Y137661D01*
X124628Y134709D01*
Y137661D01*
X125612D02*
Y134709D01*
X127088D01*
X127580Y135201D01*
Y137169D01*
X127088Y137661D01*
X125612D01*
X124177Y130160D02*
X122209D01*
Y128685D01*
X123193Y129176D01*
X123685D01*
X124177Y128685D01*
Y127701D01*
X123685Y127209D01*
X122701D01*
X122209Y127701D01*
X125161Y130160D02*
Y128193D01*
X126144Y127209D01*
X127128Y128193D01*
Y130160D01*
X121209Y124661D02*
X122193D01*
X121701D01*
Y121709D01*
X121209D01*
X122193D01*
X125144Y124661D02*
X124161D01*
X123669Y124169D01*
Y122201D01*
X124161Y121709D01*
X125144D01*
X125636Y122201D01*
Y124169D01*
X125144Y124661D01*
X126620Y121709D02*
X127604D01*
X127112D01*
Y124661D01*
X126620Y124169D01*
X120209Y118660D02*
X121193D01*
X120701D01*
Y115709D01*
X120209D01*
X121193D01*
X124144Y118660D02*
X123161D01*
X122669Y118168D01*
Y116201D01*
X123161Y115709D01*
X124144D01*
X124636Y116201D01*
Y118168D01*
X124144Y118660D01*
X127588Y115709D02*
X125620D01*
X127588Y117676D01*
Y118168D01*
X127096Y118660D01*
X126112D01*
X125620Y118168D01*
X14168Y153823D02*
X14660Y154315D01*
Y155299D01*
X14168Y155791D01*
X12201D01*
X11709Y155299D01*
Y154315D01*
X12201Y153823D01*
X13185D01*
Y154807D01*
X11709Y152840D02*
X14660D01*
X11709Y150872D01*
X14660D01*
Y149888D02*
X11709D01*
Y148412D01*
X12201Y147920D01*
X14168D01*
X14660Y148412D01*
Y149888D01*
X10960Y141979D02*
X11944D01*
X11452D01*
Y139028D01*
X10960D01*
X11944D01*
X14896Y141979D02*
X13912D01*
X13420Y141487D01*
Y139520D01*
X13912Y139028D01*
X14896D01*
X15388Y139520D01*
Y141487D01*
X14896Y141979D01*
X18340D02*
X17356Y141487D01*
X16372Y140504D01*
Y139520D01*
X16864Y139028D01*
X17848D01*
X18340Y139520D01*
Y140012D01*
X17848Y140504D01*
X16372D01*
X10960Y136074D02*
X11944D01*
X11452D01*
Y133122D01*
X10960D01*
X11944D01*
X14896Y136074D02*
X13912D01*
X13420Y135582D01*
Y133614D01*
X13912Y133122D01*
X14896D01*
X15388Y133614D01*
Y135582D01*
X14896Y136074D01*
X16372D02*
X18340D01*
Y135582D01*
X16372Y133614D01*
Y133122D01*
X10960Y118357D02*
X11944D01*
X11452D01*
Y115405D01*
X10960D01*
X11944D01*
X14896Y118357D02*
X13912D01*
X13420Y117865D01*
Y115898D01*
X13912Y115405D01*
X14896D01*
X15388Y115898D01*
Y117865D01*
X14896Y118357D01*
X16372Y115405D02*
X17356D01*
X16864D01*
Y118357D01*
X16372Y117865D01*
X18832D02*
X19324Y118357D01*
X20308D01*
X20800Y117865D01*
Y117373D01*
X20308Y116881D01*
X20800Y116390D01*
Y115898D01*
X20308Y115405D01*
X19324D01*
X18832Y115898D01*
Y116390D01*
X19324Y116881D01*
X18832Y117373D01*
Y117865D01*
X19324Y116881D02*
X20308D01*
M02*
